<?xml version="1.0" encoding="UTF-8"?>
<svg version="1.1" xmlns="http://www.w3.org/2000/svg" width="256" height="256">
<path d="M0 0 C0.91330078 -0.00478363 1.82660156 -0.00956726 2.76757812 -0.01449585 C4.69402799 -0.01789067 6.62053579 -0.00871744 8.546875 0.01220703 C11.49089348 0.03897969 14.4310997 0.01244628 17.375 -0.01953125 C19.25000839 -0.01622708 21.12501442 -0.00982068 23 0 C23.87720703 -0.01012115 24.75441406 -0.02024231 25.65820312 -0.03067017 C29.64846744 0.04561946 32.0273581 0.3977923 35.54956055 2.38208008 C38.66809184 7.62959744 38.22599636 12.84611525 38.20703125 18.83984375 C38.22215256 20.12013962 38.23727386 21.40043549 38.25285339 22.7195282 C38.29263385 26.1111232 38.30288912 29.50218117 38.30688477 32.89398193 C38.31622967 36.35982482 38.35365144 39.8253539 38.38867188 43.29101562 C38.45160574 50.08203818 38.48647467 56.87277152 38.5 63.6640625 C38.97971252 63.17990875 39.45942505 62.695755 39.95367432 62.19692993 C44.94402295 57.16236077 49.94137676 52.13482446 54.94287109 47.11132812 C56.80893942 45.23519751 58.67320939 43.3572764 60.53564453 41.47753906 C63.211768 38.77717793 65.89427616 36.08330539 68.578125 33.390625 C69.41055725 32.54787018 70.2429895 31.70511536 71.10064697 30.83682251 C72.27140778 29.66583511 72.27140778 29.66583511 73.46582031 28.47119141 C74.49174286 27.43860703 74.49174286 27.43860703 75.53839111 26.38516235 C78.76761838 23.55186433 80.59901245 22.63129932 84.9375 22.7890625 C91.59743472 24.42483594 96.27645983 29.77346028 100.375 35.1015625 C102.70884142 37.91590068 105.25803273 40.06173982 108.109375 42.33203125 C108.56828125 42.77160156 109.0271875 43.21117187 109.5 43.6640625 C109.5 44.3240625 109.5 44.9840625 109.5 45.6640625 C110.0775 45.8703125 110.655 46.0765625 111.25 46.2890625 C114.47708737 48.26117145 115.78965523 50.30671906 117.5 53.6640625 C117.5 60.48297859 114.61050828 63.44247484 110.125 68.1640625 C107.35271673 70.80433228 104.44044256 73.2136937 101.5 75.6640625 C98.79175432 78.24019863 96.36518012 80.82921685 94 83.7265625 C91.65961608 86.47651361 89.34091652 88.4623522 86.5 90.6640625 C83.19887798 93.80415418 80.29568003 97.06961675 77.5 100.6640625 C77.17 100.9940625 76.84 101.3240625 76.5 101.6640625 C77.17572052 101.65740067 77.85144104 101.65073883 78.54763794 101.64387512 C85.58802527 101.57744382 92.62832338 101.53222929 99.66894531 101.49926758 C102.29560971 101.4841923 104.92224899 101.46372884 107.54882812 101.43774414 C111.32688604 101.40130674 115.10461077 101.38432312 118.8828125 101.37109375 C120.05490265 101.35560989 121.2269928 101.34012604 122.43460083 101.32417297 C132.64012324 101.32207202 132.64012324 101.32207202 137.5 104.6640625 C139.87960386 107.04366636 139.75471015 107.53904539 139.7746582 110.77490234 C139.78419022 111.62273285 139.79372223 112.47056335 139.80354309 113.34408569 C139.80217598 114.72063828 139.80217598 114.72063828 139.80078125 116.125 C139.80506638 117.06711334 139.8093515 118.00922668 139.81376648 118.97988892 C139.81951641 120.97551672 139.82000518 122.97116549 139.81567383 124.96679688 C139.8125198 128.01989608 139.83594414 131.07202112 139.86132812 134.125 C139.86360164 136.06249878 139.86430437 138.00000016 139.86328125 139.9375 C139.872491 140.85115326 139.88170074 141.76480652 139.89118958 142.70614624 C139.84524863 149.00588693 139.84524863 149.00588693 138.16479492 152.20947266 C134.54036569 155.37626388 130.16966901 154.83483874 125.63208008 154.86938477 C124.83184921 154.87928436 124.03161835 154.88918396 123.20713806 154.89938354 C120.56129925 154.93097853 117.91544248 154.95574808 115.26953125 154.98046875 C113.43535393 155.00104 111.60118133 155.02203652 109.76701355 155.04344177 C104.9386884 155.09864473 100.11032058 155.14806187 95.28192139 155.19628906 C90.35522666 155.24651702 85.42859391 155.30219634 80.50195312 155.35742188 C70.83468836 155.46498174 61.16736978 155.56643157 51.5 155.6640625 C52.90742287 157.54176364 54.31499782 159.41935047 55.72265625 161.296875 C56.50648682 162.34246582 57.29031738 163.38805664 58.09790039 164.46533203 C60.37104392 167.49499617 62.65393828 170.51724305 64.9375 173.5390625 C68.34631568 178.08415007 71.69236689 182.67014031 75 187.2890625 C75.43368896 187.89347168 75.86737793 188.49788086 76.31420898 189.12060547 C79.51113472 193.60592114 81.16154146 196.04096008 80.5 201.6640625 C78.74145508 204.32284546 78.74145508 204.32284546 75.5 206.6640625 C71.42682659 207.42137802 67.39471593 207.34675544 63.26171875 207.31103516 C62.02056305 207.31979675 60.77940735 207.32855835 59.50064087 207.33758545 C56.10347832 207.35580593 52.70784096 207.35155945 49.31076431 207.33569002 C45.7523217 207.32301157 42.19394328 207.3347765 38.63549805 207.34262085 C32.66020028 207.35171184 26.68521173 207.3397443 20.70996094 207.31591797 C13.80634754 207.2887073 6.90347249 207.29752189 -0.00012302 207.32505 C-5.93237652 207.3477561 -11.86440802 207.35093396 -17.79669094 207.33785665 C-21.33761634 207.33007021 -24.87819493 207.32899778 -28.4190979 207.34553909 C-32.36692906 207.36269388 -36.31393637 207.33890344 -40.26171875 207.31103516 C-41.43278168 207.32115631 -42.6038446 207.33127747 -43.81039429 207.34170532 C-51.71909091 207.23813897 -51.71909091 207.23813897 -55.72192383 204.29550171 C-57.5 201.6640625 -57.5 201.6640625 -58.1875 198.9140625 C-56.50365148 190.95405133 -49.47481397 183.79705226 -44.6875 177.3515625 C-44.12224609 176.58650391 -43.55699219 175.82144531 -42.97460938 175.03320312 C-39.59019577 170.45874935 -36.18194717 165.90240979 -32.7668457 161.35083008 C-32.35441872 160.80109779 -31.94199173 160.25136551 -31.51706696 159.68497467 C-30.51146169 158.3446078 -29.50574272 157.00432623 -28.5 155.6640625 C-29.51619919 155.65819626 -30.53239838 155.65233002 -31.57939148 155.64628601 C-41.15819925 155.58906198 -50.73677992 155.51630199 -60.31535625 155.42834759 C-65.23976186 155.38362857 -70.16408444 155.34437577 -75.08862305 155.31762695 C-79.84148404 155.29160933 -84.5940258 155.25121774 -89.34668922 155.20087624 C-91.15951376 155.18419711 -92.97239352 155.17268934 -94.78528404 155.16644859 C-97.3255392 155.15681885 -99.86497572 155.12877358 -102.4050293 155.09643555 C-103.52820557 155.09858818 -103.52820557 155.09858818 -104.67407227 155.1007843 C-109.10562293 155.02104732 -111.97589341 154.40233821 -115.5 151.6640625 C-116.63563132 149.39279986 -116.64943297 148.07763408 -116.69287109 145.55322266 C-116.70893402 144.70539215 -116.72499695 143.85756165 -116.74154663 142.98403931 C-116.78597538 139.10981026 -116.82705044 135.23575221 -116.85009766 131.36132812 C-116.86667113 129.3166161 -116.89397938 127.27196234 -116.93212891 125.22753906 C-116.98682435 122.28159495 -117.00875886 119.33700807 -117.0234375 116.390625 C-117.04610687 115.47697174 -117.06877625 114.56331848 -117.09213257 113.62197876 C-117.07098359 107.28378714 -117.07098359 107.28378714 -114.15478516 104.11865234 C-110.24268019 101.97516132 -107.41326888 101.5406619 -103.01879883 101.55053711 C-101.89786331 101.55061264 -100.7769278 101.55068817 -99.62202454 101.55076599 C-98.41257675 101.55592728 -97.20312897 101.56108856 -95.95703125 101.56640625 C-94.71829758 101.5678212 -93.4795639 101.56923615 -92.20329285 101.57069397 C-88.91368463 101.57534648 -85.6241254 101.5843286 -82.33453369 101.59539795 C-78.97628377 101.60563621 -75.61802667 101.61019676 -72.25976562 101.61523438 C-65.67315788 101.62627105 -59.08658295 101.64301483 -52.5 101.6640625 C-54.9462186 99.18108936 -57.31231119 96.81055133 -60.0625 94.6640625 C-62.64477053 92.54527643 -64.44890086 90.29203328 -66.5 87.6640625 C-69.05393489 84.97570999 -71.65013508 82.53894993 -74.5 80.1640625 C-79.40600311 76.07572657 -83.4205785 71.5593683 -87.5 66.6640625 C-88.8303125 65.33375 -88.8303125 65.33375 -90.1875 63.9765625 C-92.5 61.6640625 -92.5 61.6640625 -94.5 58.6640625 C-94.3854515 52.59299203 -92.64097404 49.80503654 -88.5 45.6640625 C-87.84 45.6640625 -87.18 45.6640625 -86.5 45.6640625 C-86.273125 45.0865625 -86.04625 44.5090625 -85.8125 43.9140625 C-84.1591307 41.07971514 -82.07036056 39.69644061 -79.5 37.6640625 C-77.81267723 35.68145824 -76.14633943 33.6808283 -74.5 31.6640625 C-66.28661088 22.81887422 -66.28661088 22.81887422 -60.125 22.4765625 C-52.22772166 25.06360196 -46.25703582 32.76570877 -40.5 38.56640625 C-39.7788501 39.2889711 -39.0577002 40.01153595 -38.31469727 40.7559967 C-36.04074585 43.03548854 -33.77032046 45.3184549 -31.5 47.6015625 C-29.94684765 49.15973756 -28.39346433 50.71768243 -26.83984375 52.27539062 C-23.05722414 56.06896009 -19.2774831 59.86537865 -15.5 63.6640625 C-15.49857498 62.94853714 -15.49714996 62.23301178 -15.49568176 61.49580383 C-15.47782919 54.74234159 -15.43614987 47.98949185 -15.36790943 41.23634052 C-15.33366304 37.76465075 -15.30853332 34.29339987 -15.30444336 30.8215332 C-15.29933406 26.82710783 -15.25420534 22.83399544 -15.20703125 18.83984375 C-15.2109639 17.59697098 -15.21489655 16.35409821 -15.21894836 15.07356262 C-15.07612866 6.63350769 -15.07612866 6.63350769 -12.54956055 2.38208008 C-8.29458543 -0.01502663 -4.81401966 -0.05554383 0 0 Z M4.375 114.6640625 C3.60929687 115.57414062 2.84359375 116.48421875 2.0546875 117.421875 C-2.45254685 123.07989258 -6.7676753 128.8825741 -11.05419922 134.70849609 C-12.41061742 136.54316509 -13.78098247 138.36599335 -15.16015625 140.18359375 C-15.95292969 141.22902344 -16.74570313 142.27445313 -17.5625 143.3515625 C-18.25472656 144.26292969 -18.94695312 145.17429688 -19.66015625 146.11328125 C-21.40903645 148.53794955 -22.96187294 151.1005174 -24.5 153.6640625 C-0.74 153.6640625 23.02 153.6640625 47.5 153.6640625 C44.03097751 148.46052877 40.75098284 143.54532054 36.9375 138.6640625 C36.07894502 137.56157315 35.2209005 136.45868615 34.36328125 135.35546875 C33.67999756 134.47785889 33.67999756 134.47785889 32.98291016 133.58251953 C31.34382711 131.46201993 29.72336024 129.32811527 28.10546875 127.19140625 C27.52804932 126.43021484 26.95062988 125.66902344 26.35571289 124.88476562 C25.22385688 123.39159065 24.09404989 121.8968597 22.96655273 120.40039062 C18.41059093 113.59871286 18.41059093 113.59871286 11.5078125 110.1640625 C7.74920154 110.78887056 6.80342395 111.76900022 4.375 114.6640625 Z " fill="#ffffff" transform="translate(116.5,24.3359375)"/>
<path d="M0 0 C0.99 0.33 1.98 0.66 3 1 C-5.91 9.91 -14.82 18.82 -24 28 C-24 24.06830895 -22.60580385 22.83572772 -20 20 C-19.34 20 -18.68 20 -18 20 C-17.773125 19.4225 -17.54625 18.845 -17.3125 18.25 C-15.6591307 15.41565264 -13.57036056 14.03237811 -11 12 C-9.31267723 10.01739574 -7.64633943 8.0167658 -6 6 C-4.35216394 4.31471312 -2.68997323 2.64302953 -1 1 C-0.67 0.67 -0.34 0.34 0 0 Z " fill="#ffffff" transform="translate(48,50)"/>
</svg>
